<?xml version="1.0" encoding="UTF-8" standalone="no"?>
<!-- Created with Inkscape (http://www.inkscape.org/) -->

<svg
   width="297mm"
   height="297mm"
   viewBox="0 0 297 297"
   version="1.1"
   id="svg1"
   sodipodi:docname="monochrome.svg"
   xml:space="preserve"
   inkscape:version="1.3 (0e150ed6c4, 2023-07-21)"
   xmlns:inkscape="http://www.inkscape.org/namespaces/inkscape"
   xmlns:sodipodi="http://sodipodi.sourceforge.net/DTD/sodipodi-0.dtd"
   xmlns="http://www.w3.org/2000/svg"
   xmlns:svg="http://www.w3.org/2000/svg"><sodipodi:namedview
     id="namedview1"
     pagecolor="#ffffff"
     bordercolor="#000000"
     borderopacity="0.25"
     inkscape:showpageshadow="2"
     inkscape:pageopacity="0.0"
     inkscape:pagecheckerboard="0"
     inkscape:deskcolor="#d1d1d1"
     inkscape:document-units="mm"
     inkscape:zoom="0.54"
     inkscape:cx="462.96296"
     inkscape:cy="487.96296"
     inkscape:window-width="1920"
     inkscape:window-height="1007"
     inkscape:window-x="0"
     inkscape:window-y="0"
     inkscape:window-maximized="1"
     inkscape:current-layer="layer1" /><defs
     id="defs1" /><g
     inkscape:label="Layer 1"
     inkscape:groupmode="layer"
     id="layer1"><path
       style="fill:#000000;stroke-width:3.47146"
       d="m 146.06382,280.34297 c -6.89847,-2.60579 -6.42943,6.29831 -6.42943,-122.06133 0,-109.902019 -0.0955,-116.951763 -1.60736,-118.818855 -7.66082,-9.459901 -59.389823,5.705904 -77.617532,22.755772 -8.774228,8.207263 -20.849842,36.379776 -17.170651,40.059283 2.723568,2.72381 -1.173665,16.37068 -16.538108,57.91085 -3.12869,8.45887 -3.133374,8.49487 -1.188455,9.11216 11.34547,3.60092 5.595685,12.13005 -7.577919,11.24101 C -1.4652753,179.23263 -3.4397349,175.16467 5.9482389,155.8468 11.887603,143.62516 18.795845,127.74351 22.185094,118.51914 c 1.306487,-3.55583 2.041633,-8.93193 2.63752,-19.288314 2.523674,-43.86122 26.396223,-67.358288 79.848576,-78.592635 90.01402,-18.9187638 158.82835,10.865403 168.56901,72.959914 2.90885,18.543295 4.38738,23.594895 13.8872,47.448385 13.57147,34.07704 12.99538,37.97126 -5.61706,37.97126 -10.76042,0 -14.77978,-5.88118 -8.25143,-12.0736 2.90738,-2.75773 3.24478,-0.95438 -3.66829,-19.60724 -7.32409,-19.76187 -10.55244,-31.86779 -10.55244,-39.57042 0,-4.83116 -0.30619,-6.00122 -1.77659,-6.78813 -7.92525,-4.241459 -7.17295,13.94274 1.82637,44.1462 5.09937,17.11437 5.35879,19.74404 2.60235,26.37678 -2.35949,5.67755 -0.52096,9.89738 5.6934,13.06772 11.47145,5.8523 6.02268,22.17779 -5.68848,17.04374 -3.97538,-1.74275 -3.6754,8.54753 0.32285,11.07147 7.26573,4.58666 3.64945,17.76898 -4.87452,17.76898 -12.31751,0 -28.13713,-13.4356 -33.42198,-28.38531 -9.06663,-25.64747 -8.33289,-33.4912 5.08961,-54.40835 2.61298,-4.07195 2.70202,-4.49742 1.44986,-6.92657 -0.73376,-1.42345 -3.27786,-7.54796 -5.65358,-13.61 -2.3757,-6.06204 -6.14033,-14.47842 -8.36585,-18.70313 -2.22548,-4.22466 -4.04636,-8.58641 -4.04636,-9.692733 0,-5.032059 16.10664,-32.683771 19.03773,-32.683771 2.65601,0 8.18717,5.446101 10.65982,10.495891 2.49376,5.092944 6.59925,7.145729 8.41506,4.207684 5.56902,-9.010907 -36.51303,-36.041508 -67.31024,-43.235414 -29.00715,-6.775779 -26.9535,-18.045695 -26.36169,144.667623 0.33985,93.42262 0.33292,93.62445 -3.31656,96.65062 -1.66864,1.38363 -5.48905,2.18043 -7.25546,1.51318 z m -26.1883,-2.72999 c -2.67011,-2.67008 -2.77654,-4.68543 -2.29689,-43.48578 0.5687,-46.00325 0.89759,-42.57647 -4.32904,-45.10664 -9.04372,-4.378 -10.14944,-3.69575 -14.542656,8.97268 -6.10939,17.61732 -11.204935,25.11206 -17.07331,25.11206 -2.260194,0 -2.146368,-1.36525 0.573144,-6.87411 1.250864,-2.53385 4.379036,-12.25346 6.951495,-21.59909 2.572489,-9.34566 4.897644,-17.7601 5.167064,-18.69875 0.450767,-1.57052 1.416564,-1.68042 12.107173,-1.37774 14.17807,0.40143 13.23172,5.39541 12.42624,-65.57278 -0.58117,-51.205857 -0.58117,-51.205857 -2.6589,-51.205857 -4.10331,0 -18.487067,4.770723 -25.086382,8.32053 -8.30294,4.466132 -9.417275,4.483015 -12.951087,0.195788 -4.587192,-5.565029 -4.016789,-6.678886 5.221122,-10.195714 30.715147,-11.693206 40.997747,-12.962847 44.838127,-5.536386 2.75536,5.328269 2.1783,223.395429 -0.59901,226.351739 -2.42398,2.58019 -5.58158,2.86548 -7.74709,0.69998 z m 50.55031,-0.61345 c -3.23884,-4.94312 -1.78846,-226.323059 1.50432,-229.615875 5.17172,-5.171717 30.80429,0.982561 47.3833,11.376536 3.32687,2.085754 0.56068,12.765085 -3.31215,12.787051 -0.68506,0.004 -2.85743,-1.269551 -4.82749,-2.82986 -9.70523,-7.686681 -28.18153,-14.051259 -29.76008,-10.251546 -1.3462,3.240482 -0.42893,112.412174 0.9672,115.111954 1.75179,3.38764 2.6834,3.60297 15.58602,3.60297 11.49661,0 16.0652,3.26501 16.0652,11.4813 0,6.95639 7.79467,23.70046 13.93722,29.93914 8.27506,8.4045 6.9675,12.73994 -2.46516,8.17369 -9.70329,-4.69728 -15.56981,-13.15188 -18.83107,-27.13868 -2.57743,-11.05376 -3.00363,-11.43357 -12.83005,-11.43357 -13.77014,0 -14.27995,2.56927 -12.02944,60.62041 0.92924,23.96908 0.89276,25.37571 -0.71467,27.55471 -2.48533,3.36912 -8.63814,3.72755 -10.67315,0.62177 z M 35.638394,257.49472 c -3.075011,-1.66877 -4.385943,-3.98611 -4.385943,-7.75317 0,-5.79929 1.931136,-7.1026 11.626442,-7.84661 2.653655,-0.20378 7.013087,-1.16038 9.687671,-2.12606 2.674584,-0.96569 11.889333,-4.22459 20.47725,-7.24199 8.587867,-3.0174 18.333333,-6.57832 21.656566,-7.91313 8.39542,-3.3721 9.71618,-3.23279 11.03342,1.16381 2.30529,7.69432 1.81807,8.10183 -18.453393,15.43495 -17.360051,6.27994 -24.29256,8.92613 -35.361904,13.49798 -11.019521,4.55126 -12.543672,4.81189 -16.280109,2.78422 z m 208.703946,-5.54181 c -7.32496,-2.77488 -19.51794,-7.46402 -27.09548,-10.42031 -7.57754,-2.95635 -15.31381,-5.85956 -17.19165,-6.45158 -7.16815,-2.25996 -9.99344,-8.88014 -5.64536,-13.22822 2.89777,-2.89777 6.36874,-3.11819 11.16284,-0.70883 3.67942,1.84914 21.7573,8.98758 36.33866,14.34908 4.97755,1.83022 12.83065,4.18644 17.45131,5.23603 9.30018,2.11253 10.69741,3.18198 10.69741,8.18787 0,9.21943 -7.16274,10.06496 -25.71773,3.03596 z M 30.948737,231.32992 c -7.501766,-5.90085 -3.698784,-17.99324 5.426617,-17.25496 3.765838,0.30479 3.765838,0.30479 3.017366,-2.91002 -0.411689,-1.76812 -0.758378,-4.59087 -0.770427,-6.27279 -0.02083,-2.98671 -0.09169,-3.04087 -3.007011,-2.31977 -8.724037,2.15783 -13.547731,-0.87626 -13.547731,-8.52139 0,-6.33314 3.89245,-9.91152 10.129519,-9.31224 6.800455,0.65343 7.466655,-9.25228 1.177512,-17.50817 -2.265337,-2.97376 -2.290183,-3.15809 -0.866642,-6.42946 8.317759,-19.11498 14.727714,-42.82374 14.816743,-54.80338 0.06658,-8.96445 0.341257,-10.621093 2.437077,-14.695867 1.299091,-2.525837 3.04874,-6.659063 3.888144,-9.1849 5.696385,-17.14141 20.913815,-19.282676 24.315433,-3.421501 0.528634,2.464903 2.634101,7.941142 4.678863,12.169417 5.329356,11.020431 5.024077,14.100521 -3.229669,32.584171 -1.127919,2.52583 -2.671156,6.69729 -3.429424,9.26988 -0.758238,2.57256 -2.246899,6.37933 -3.308094,8.45943 -2.405104,4.71442 -2.423881,6.28636 -0.09239,7.74233 1.010327,0.63098 1.836994,1.7107 1.836994,2.39938 0,0.68866 2.686554,6.44157 5.970181,12.78424 7.011482,13.54349 7.293609,15.81663 3.595533,28.97018 -6.464969,22.99499 -12.41145,28.91796 -36.944089,36.79804 -12.082042,3.88085 -12.91734,3.95649 -16.094457,1.45738 z M 191.96564,203.29795 c -2.22477,-5.85149 -0.69824,-8.90492 4.2494,-8.49981 3.83732,0.31417 5.02113,3.14664 3.63066,8.68672 -0.82259,3.2775 -6.61515,3.14014 -7.88006,-0.18677 z m 5.76181,-35.28885 c -4.67363,-0.34577 -8.77696,-0.90797 -9.11855,-1.24956 -0.34159,-0.34159 -0.92838,-19.11259 -1.30395,-41.71333 -0.37558,-22.60074 -0.97875,-44.248281 -1.34037,-48.105639 -0.837,-8.928417 -0.17357,-11.815672 2.71513,-11.815672 4.04707,0 6.5291,10.800621 7.91515,34.443387 1.45676,24.848664 5.76737,42.631844 10.3478,42.689284 2.95733,0.0371 2.9055,-2.97087 -0.20412,-11.85021 -5.86504,-16.74723 -3.52832,-26.64974 4.29701,-18.20982 7.24548,7.81453 11.8766,31.53718 7.69643,39.42458 -1.96158,3.70127 -4.3051,8.7298 -5.20782,11.17454 -1.48102,4.01086 -4.26673,6.50805 -6.67012,5.97931 -0.34611,-0.0761 -4.453,-0.42123 -9.12662,-0.76687 z M 85.619658,162.63745 c -1.453081,-2.35715 -4.153777,-5.79436 -6.001564,-7.63821 -5.134604,-5.12378 -4.325617,-15.75131 1.489049,-19.56121 1.64287,-1.07643 2.654213,-3.12375 3.763336,-7.61822 0.834202,-3.38041 3.612336,-10.91324 6.173653,-16.7396 10.350408,-23.544693 11.252608,-26.032727 14.082778,-38.83701 0.72686,-3.28844 5.37185,-3.642803 7.0342,-0.536677 2.34292,4.377781 -2.05747,20.686643 -9.99572,37.046697 -4.823714,9.94116 -8.729628,26.27031 -6.755926,28.24398 2.973265,2.97327 7.342696,-5.41326 9.584926,-18.39703 1.50133,-8.69352 1.15279,-8.06609 4.92978,-8.87462 4.93124,-1.05564 7.25629,9.55425 4.09535,18.68808 -2.35983,6.8189 -2.43308,9.16813 -0.33361,10.70315 3.28237,2.40013 1.60784,25.81604 -1.89692,26.52501 -12.286294,2.48537 -23.584614,1.18828 -26.169153,-3.00434 z M 204.44285,90.61303 c -0.19058,-0.631487 -1.41771,-4.500087 -2.72666,-8.596896 -3.7204,-11.644252 -3.42973,-13.574491 1.95263,-12.96785 8.2308,0.927746 10.46889,6.643266 6.2301,15.910219 -1.26291,2.761072 -2.29624,5.421145 -2.29624,5.911349 0,1.310722 -2.75405,1.086878 -3.15983,-0.256882 z M 87.278085,86.041225 c -4.555251,-10.588966 -2.874997,-14.933608 6.190656,-16.007291 7.061129,-0.836275 7.185269,1.906669 0.702626,15.527393 -3.101821,6.517322 -4.261324,6.598039 -6.893282,0.479898 z"
       id="path16" /></g></svg>
